<svg width="230" height="181" viewBox="0 0 230 181" fill="none" xmlns="http://www.w3.org/2000/svg">
<path fill-rule="evenodd" clip-rule="evenodd" d="M161.496 109.234C201.847 114.994 230 128.021 230 143.168C230 163.652 178.513 180.258 115 180.258C51.4873 180.258 0 163.652 0 143.168C0 128.021 28.1533 114.994 68.504 109.234C82.3634 111.955 98.192 113.496 115 113.496C131.386 113.496 146.842 112.031 160.45 109.439L161.496 109.234Z" fill="#111827"/>
<path fill-rule="evenodd" clip-rule="evenodd" d="M144.105 48.2491C180.651 52.1769 207 63.2989 207 76.4058C207 92.7932 165.81 106.078 115 106.078C64.1898 106.078 23 92.7932 23 76.4058C23 63.2989 49.349 52.1769 85.8949 48.2491C94.8463 49.662 104.68 50.4426 115 50.4426C124.959 50.4426 134.465 49.7157 143.162 48.3955L144.105 48.2491Z" fill="#111827"/>
<path d="M115 44.5082C153.108 44.5082 184 34.5447 184 22.2541C184 9.9635 153.108 0 115 0C76.8923 0 46 9.9635 46 22.2541C46 34.5447 76.8923 44.5082 115 44.5082Z" fill="#111827"/>
</svg>
