<?xml version="1.0" standalone="no"?>
<!DOCTYPE svg PUBLIC "-//W3C//DTD SVG 20010904//EN"
 "http://www.w3.org/TR/2001/REC-SVG-20010904/DTD/svg10.dtd">
<svg version="1.0" xmlns="http://www.w3.org/2000/svg"
 width="700.000000pt" height="700.000000pt" viewBox="0 0 700.000000 700.000000"
 preserveAspectRatio="xMidYMid meet">
<metadata>
Created by potrace 1.11, written by Peter Selinger 2001-2013
</metadata>
<g transform="translate(0.000000,700.000000) scale(0.100000,-0.100000)"
fill="#000000" stroke="none">
<path d="M3229 6016 c-2 -2 -56 -6 -119 -10 -63 -3 -131 -8 -150 -10 -19 -3
-60 -7 -90 -11 -127 -14 -173 -20 -260 -35 -30 -5 -71 -12 -90 -15 -59 -10
-312 -73 -375 -93 -373 -122 -574 -278 -575 -445 -1 -195 264 -367 765 -497
90 -23 314 -65 405 -75 30 -3 62 -8 70 -10 8 -2 47 -7 85 -10 39 -3 84 -8 100
-10 196 -24 762 -24 1010 0 22 2 67 7 100 10 74 7 338 46 345 50 3 2 24 6 48
10 80 12 317 74 422 110 251 88 441 216 491 331 66 156 -38 305 -308 437 -49
24 -98 46 -108 49 -11 4 -47 16 -80 28 -139 51 -378 109 -560 136 -27 4 -57 9
-65 10 -8 2 -42 6 -75 9 -33 4 -62 8 -65 10 -3 1 -48 6 -100 10 -52 4 -111 9
-130 11 -41 6 -686 15 -691 10z"/>
<path d="M2650 4667 c-3 -3 -32 -8 -65 -11 -367 -37 -892 -161 -1120 -266 -22
-10 -66 -29 -98 -44 -159 -70 -338 -208 -393 -301 -171 -293 122 -579 801
-780 109 -33 149 -43 195 -51 19 -3 38 -8 41 -10 10 -6 243 -51 359 -69 19 -3
46 -7 60 -10 28 -5 79 -12 155 -20 28 -3 66 -8 85 -10 325 -45 1110 -55 1465
-19 22 2 66 6 98 9 79 6 266 29 337 40 109 17 277 47 335 60 39 9 81 18 95 21
197 41 494 141 655 222 656 328 532 750 -304 1029 -170 57 -436 124 -576 146
-16 3 -57 10 -90 15 -72 13 -94 16 -250 36 -66 9 -129 14 -140 12 -17 -3 -109
-15 -248 -31 -234 -28 -871 -28 -1092 -1 -16 2 -57 7 -90 11 -33 4 -69 8 -80
10 -103 14 -131 16 -135 12z"/>
<path d="M2025 2935 c-185 -33 -188 -33 -315 -62 -63 -14 -134 -29 -158 -34
-24 -5 -47 -11 -51 -13 -4 -3 -18 -7 -32 -10 -99 -20 -418 -124 -491 -161 -17
-8 -35 -15 -40 -15 -20 0 -250 -120 -332 -173 -102 -67 -232 -192 -269 -261
-164 -299 52 -590 613 -828 81 -35 389 -141 440 -152 14 -3 79 -19 145 -36
143 -36 424 -94 510 -105 11 -1 34 -5 50 -8 17 -4 50 -9 75 -12 25 -3 56 -7
70 -9 14 -3 52 -8 85 -11 33 -4 70 -9 83 -10 13 -2 55 -6 95 -10 40 -4 86 -9
102 -11 17 -2 66 -6 110 -9 44 -4 96 -8 115 -10 237 -24 1000 -24 1340 0 116
8 208 16 235 20 17 2 62 7 100 10 39 4 84 9 100 11 17 2 54 6 84 10 30 3 62 7
72 9 9 2 39 6 66 10 57 8 76 11 123 19 19 3 48 8 64 11 16 2 52 9 80 14 28 6
65 13 81 15 74 13 180 37 307 69 797 202 1264 520 1234 840 -11 118 -49 191
-156 297 -145 146 -377 274 -695 386 -111 39 -344 107 -445 130 -36 8 -74 16
-85 19 -82 19 -409 80 -488 90 -24 4 -85 -1 -138 -10 -52 -9 -107 -18 -124
-21 -16 -2 -41 -6 -55 -9 -31 -5 -76 -11 -155 -21 -33 -3 -68 -8 -79 -10 -10
-2 -59 -6 -110 -9 -50 -4 -102 -8 -115 -10 -149 -24 -970 -24 -1156 0 -16 2
-60 6 -96 9 -75 6 -321 35 -359 42 -14 3 -50 9 -80 14 -30 5 -82 14 -115 19
-77 14 -86 13 -240 -14z"/>
</g>
</svg>
